<?xml version="1.0" encoding="UTF-8" standalone="no"?>
<svg
   xmlns:dc="http://purl.org/dc/elements/1.1/"
   xmlns:cc="http://creativecommons.org/ns#"
   xmlns:rdf="http://www.w3.org/1999/02/22-rdf-syntax-ns#"
   xmlns:svg="http://www.w3.org/2000/svg"
   xmlns="http://www.w3.org/2000/svg"
   id="svg110"
   version="1.1"
   viewBox="0 0 78.295616 14.533581"
   height="14.533581mm"
   width="78.295616mm">
  <defs
     id="defs104" />
  <metadata
     id="metadata107">
    <rdf:RDF>
      <cc:Work
         rdf:about="">
        <dc:format>image/svg+xml</dc:format>
        <dc:type
           rdf:resource="http://purl.org/dc/dcmitype/StillImage" />
        <dc:title></dc:title>
      </cc:Work>
    </rdf:RDF>
  </metadata>
  <g
     transform="translate(-31.155764,-38.846307)"
     id="layer1">
    <g
       transform="matrix(0.28222255,0,0,0.28222255,-44.542002,6.1725553)"
       style="font-weight:600;font-size:56.25px;font-family:'Lato Semibold';fill:#3f2d26;fill-opacity:1"
       id="text3457">
      <path
         style="fill:#3f2d26;fill-opacity:1"
         d="m 290.07325,134.673 q -0.28125,0.36563 -0.53438,0.5625 -0.25312,0.19688 -0.73125,0.19688 -0.47812,0 -1.0125,-0.3375 -0.50625,-0.3375 -1.2375,-0.73125 -0.70312,-0.42188 -1.71562,-0.75938 -1.0125,-0.3375 -2.53125,-0.3375 -1.96875,0 -3.45938,0.70313 -1.4625,0.70312 -2.475,2.025 -0.98437,1.29375 -1.49062,3.17812 -0.47813,1.85625 -0.47813,4.19063 0,2.41875 0.53438,4.30312 0.53437,1.88438 1.51875,3.17813 1.0125,1.29375 2.41875,1.96875 1.43437,0.675 3.20625,0.675 1.74375,0 2.84062,-0.42188 1.09688,-0.42187 1.82813,-0.92812 0.73125,-0.50625 1.2375,-0.92813 0.53437,-0.42187 1.125,-0.42187 0.73125,0 1.125,0.5625 l 1.71562,2.22187 q -1.04062,1.26563 -2.30625,2.1375 -1.26562,0.87188 -2.67187,1.43438 -1.40625,0.53437 -2.925,0.75937 -1.51875,0.25313 -3.06563,0.25313 -2.67187,0 -5.00625,-0.98438 -2.30625,-1.0125 -4.05,-2.89687 -1.71562,-1.9125 -2.72812,-4.64063 -0.98438,-2.75625 -0.98438,-6.27187 0,-3.17813 0.9,-5.87813 0.9,-2.72812 2.61563,-4.69687 1.74375,-1.96875 4.30312,-3.06563 2.55938,-1.125 5.90625,-1.125 3.12188,0 5.48438,1.0125 2.39062,1.0125 4.24687,2.86875 z"
         id="path3354" />
      <path
         style="fill:#3f2d26;fill-opacity:1"
         d="m 303.09512,129.048 v 28.6875 h -6.04687 V 129.048 Z m 1.0125,-8.6625 q 0,0.81563 -0.3375,1.54688 -0.30937,0.73125 -0.87187,1.29375 -0.5625,0.53437 -1.32188,0.87187 -0.73125,0.30938 -1.575,0.30938 -0.81562,0 -1.54687,-0.30938 -0.70313,-0.3375 -1.2375,-0.87187 -0.53438,-0.5625 -0.87188,-1.29375 -0.30937,-0.73125 -0.30937,-1.54688 0,-0.84375 0.30937,-1.575 0.3375,-0.73125 0.87188,-1.26562 0.53437,-0.5625 1.2375,-0.87188 0.73125,-0.3375 1.54687,-0.3375 0.84375,0 1.575,0.3375 0.75938,0.30938 1.32188,0.87188 0.5625,0.53437 0.87187,1.26562 0.3375,0.73125 0.3375,1.575 z"
         id="path3356" />
      <path
         style="fill:#3f2d26;fill-opacity:1"
         d="m 319.8858,158.1855 q -3.57188,0 -5.5125,-1.99687 -1.9125,-2.025 -1.9125,-5.68125 v -16.70625 h -3.15 q -0.50625,0 -0.87188,-0.30938 -0.36562,-0.3375 -0.36562,-0.98437 v -2.44688 l 4.64062,-0.675 1.32188,-8.29687 q 0.14062,-0.47813 0.47812,-0.75938 0.3375,-0.30937 0.9,-0.30937 h 3.09375 v 9.42187 h 7.95938 v 4.35938 h -7.95938 v 16.28437 q 0,1.54688 0.75938,2.3625 0.75937,0.81563 2.025,0.81563 0.70312,0 1.20937,-0.16875 0.50625,-0.19688 0.87188,-0.39375 0.36562,-0.225 0.61875,-0.39375 0.28125,-0.19688 0.53437,-0.19688 0.50625,0 0.81563,0.5625 l 1.8,2.95313 q -1.40625,1.2375 -3.31875,1.9125 -1.9125,0.64687 -3.9375,0.64687 z"
         id="path3358" />
      <path
         style="fill:#3f2d26;fill-opacity:1"
         d="m 358.13576,129.048 -15.80625,36.84375 q -0.30937,0.64688 -0.75937,1.0125 -0.42188,0.36563 -1.32188,0.36563 h -4.47187 l 5.2875,-11.475 -11.7,-26.74688 h 5.25937 q 0.75938,0 1.15313,0.36563 0.42187,0.3375 0.61875,0.81562 l 6.83437,16.28438 q 0.25313,0.70312 0.45,1.40625 0.225,0.675 0.42188,1.40625 0.225,-0.73125 0.45,-1.43438 0.225,-0.70312 0.50625,-1.40625 l 6.55312,-16.25625 q 0.19688,-0.50625 0.64688,-0.84375 0.47812,-0.3375 1.04062,-0.3375 z"
         id="path3360" />
    </g>
    <g
       transform="matrix(0.28222255,0,0,0.28222255,-44.542002,6.1725553)"
       style="font-weight:800;font-size:56.25px;font-family:'Lato Heavy';fill:#3f2d26;fill-opacity:1"
       id="text3461">
      <path
         style="fill:#3f2d26;fill-opacity:1"
         d="m 369.94831,115.80113 v 41.93437 h -7.7625 v -41.93437 z"
         id="path3363" />
      <path
         style="fill:#3f2d26;fill-opacity:1"
         d="m 384.40453,128.73863 v 28.99687 h -7.7625 v -28.99687 z m 0.92813,-8.24063 q 0,0.98438 -0.39375,1.82813 -0.39375,0.84375 -1.06875,1.49062 -0.64688,0.64688 -1.54688,1.0125 -0.87187,0.36563 -1.88437,0.36563 -0.95625,0 -1.82813,-0.36563 -0.84375,-0.36562 -1.49062,-1.0125 -0.64688,-0.64687 -1.04063,-1.49062 -0.36562,-0.84375 -0.36562,-1.82813 0,-0.98437 0.36562,-1.82812 0.39375,-0.87188 1.04063,-1.51875 0.64687,-0.64688 1.49062,-1.0125 0.87188,-0.36563 1.82813,-0.36563 1.0125,0 1.88437,0.36563 0.9,0.36562 1.54688,1.0125 0.675,0.64687 1.06875,1.51875 0.39375,0.84375 0.39375,1.82812 z"
         id="path3365" />
      <path
         style="fill:#3f2d26;fill-opacity:1"
         d="m 398.24203,132.11363 q 0.87188,-0.84375 1.8,-1.54688 0.95625,-0.70312 1.99688,-1.20937 1.06875,-0.50625 2.27812,-0.7875 1.2375,-0.28125 2.67188,-0.28125 2.3625,0 4.19062,0.81562 1.82813,0.81563 3.06563,2.27813 1.26562,1.4625 1.88437,3.4875 0.64688,2.025 0.64688,4.44375 v 18.42187 h -7.73438 v -18.42187 q 0,-2.41875 -1.125,-3.74063 -1.125,-1.35 -3.31875,-1.35 -1.63125,0 -3.06562,0.70313 -1.43438,0.70312 -2.72813,1.96875 v 20.84062 h -7.7625 v -28.99687 h 4.78125 q 1.4625,0 1.94063,1.35 z"
         id="path3367" />
      <path
         style="fill:#3f2d26;fill-opacity:1"
         d="m 441.32952,139.81988 q 0,-1.20938 -0.3375,-2.30625 -0.30937,-1.09688 -1.0125,-1.94063 -0.70312,-0.84375 -1.77187,-1.32187 -1.06875,-0.50625 -2.55938,-0.50625 -2.78437,0 -4.35937,1.575 -1.575,1.575 -2.05313,4.5 z m -12.20625,4.6125 q 0.36563,4.07812 2.30625,5.9625 1.96875,1.88437 5.11875,1.88437 1.60313,0 2.75625,-0.36562 1.18125,-0.39375 2.05313,-0.84375 0.9,-0.47813 1.60312,-0.84375 0.73125,-0.39375 1.43438,-0.39375 0.9,0 1.40625,0.675 l 2.25,2.8125 q -1.2375,1.43437 -2.72813,2.39062 -1.49062,0.92813 -3.09375,1.49063 -1.60312,0.53437 -3.23437,0.73125 -1.63125,0.225 -3.15,0.225 -3.0375,0 -5.68125,-0.98438 -2.61563,-1.0125 -4.58438,-2.95312 -1.94062,-1.96875 -3.06562,-4.86563 -1.125,-2.89687 -1.125,-6.72187 0,-2.95313 0.95625,-5.56875 0.98437,-2.61563 2.8125,-4.55625 1.82812,-1.94063 4.44375,-3.06563 2.61562,-1.15312 5.90625,-1.15312 2.78437,0 5.11875,0.9 2.3625,0.87187 4.05,2.55937 1.71562,1.6875 2.64375,4.1625 0.95625,2.44688 0.95625,5.59688 0,0.87187 -0.0844,1.43437 -0.0844,0.5625 -0.28125,0.9 -0.19687,0.3375 -0.53437,0.47813 -0.3375,0.1125 -0.87188,0.1125 h -17.38125 z"
         id="path3369" />
      <path
         style="fill:#3f2d26;fill-opacity:1"
         d="m 471.11392,134.70113 q -0.30937,0.47812 -0.64687,0.70312 -0.30938,0.19688 -0.87188,0.19688 -0.5625,0 -1.15312,-0.28125 -0.59063,-0.28125 -1.32188,-0.59063 -0.73125,-0.3375 -1.6875,-0.61875 -0.92812,-0.28125 -2.16562,-0.28125 -1.88438,0 -2.925,0.7875 -1.04063,0.75938 -1.04063,2.025 0,0.87188 0.59063,1.4625 0.59062,0.59063 1.54687,1.04063 0.98438,0.42187 2.22188,0.81562 1.2375,0.36563 2.53125,0.81563 1.32187,0.45 2.55937,1.04062 1.2375,0.59063 2.19375,1.49063 0.98438,0.87187 1.575,2.1375 0.59063,1.2375 0.59063,3.00937 0,2.10938 -0.7875,3.90938 -0.75938,1.77187 -2.25,3.06562 -1.49063,1.29375 -3.7125,2.025 -2.22188,0.73125 -5.11875,0.73125 -1.49063,0 -2.95313,-0.28125 -1.4625,-0.25312 -2.78437,-0.73125 -1.32188,-0.50625 -2.475,-1.15312 -1.15313,-0.64688 -1.99688,-1.40625 l 1.8,-2.89688 q 0.30938,-0.50625 0.75938,-0.7875 0.47812,-0.28125 1.20937,-0.28125 0.70313,0 1.29375,0.36563 0.59063,0.3375 1.32188,0.75937 0.73125,0.39375 1.71562,0.75938 1.0125,0.3375 2.50313,0.3375 1.125,0 1.94062,-0.25313 0.81563,-0.25312 1.32188,-0.675 0.50625,-0.45 0.73125,-0.98437 0.25312,-0.5625 0.25312,-1.15313 0,-0.95625 -0.61875,-1.54687 -0.59062,-0.61875 -1.575,-1.06875 -0.95625,-0.45 -2.22187,-0.81563 -1.26563,-0.36562 -2.5875,-0.81562 -1.29375,-0.45 -2.55938,-1.06875 -1.2375,-0.61875 -2.22187,-1.54688 -0.95625,-0.95625 -1.575,-2.33437 -0.59063,-1.37813 -0.59063,-3.34688 0,-1.8 0.70313,-3.40312 0.70312,-1.63125 2.10937,-2.86875 1.40625,-1.2375 3.4875,-1.96875 2.10938,-0.73125 4.86563,-0.73125 3.09375,0 5.625,1.0125 2.53125,1.0125 4.1625,2.64375 z"
         id="path3371" />
      <path
         style="fill:#3f2d26;fill-opacity:1"
         d="m 476.85141,153.65738 q 0,-0.92813 0.3375,-1.74375 0.36562,-0.84375 0.98437,-1.43438 0.61875,-0.61875 1.43438,-0.95625 0.84375,-0.36562 1.82812,-0.36562 0.95625,0 1.8,0.36562 0.84375,0.3375 1.4625,0.95625 0.61875,0.59063 0.95625,1.43438 0.36563,0.81562 0.36563,1.74375 0,0.95625 -0.36563,1.77187 -0.3375,0.81563 -0.95625,1.43438 -0.61875,0.59062 -1.4625,0.92812 -0.84375,0.3375 -1.8,0.3375 -0.98437,0 -1.82812,-0.3375 -0.81563,-0.3375 -1.43438,-0.92812 -0.61875,-0.61875 -0.98437,-1.43438 -0.3375,-0.81562 -0.3375,-1.77187 z"
         id="path3373" />
      <path
         style="fill:#3f2d26;fill-opacity:1"
         d="m 512.3733,135.20738 q -0.3375,0.45 -0.675,0.70312 -0.3375,0.225 -0.95625,0.225 -0.5625,0 -1.09688,-0.30937 -0.50625,-0.3375 -1.18125,-0.70313 -0.675,-0.39375 -1.60312,-0.70312 -0.92813,-0.3375 -2.30625,-0.3375 -1.74375,0 -3.0375,0.64687 -1.26563,0.61875 -2.10938,1.8 -0.84375,1.18125 -1.26562,2.86875 -0.39375,1.6875 -0.39375,3.79688 0,4.44375 1.77187,6.80625 1.8,2.3625 4.89375,2.3625 1.06875,0 1.82813,-0.16875 0.7875,-0.19688 1.35,-0.47813 0.59062,-0.28125 1.0125,-0.61875 0.42187,-0.3375 0.7875,-0.61875 0.39375,-0.28125 0.75937,-0.45 0.39375,-0.19687 0.87188,-0.19687 0.9,0 1.40625,0.675 l 2.22187,2.8125 q -1.2375,1.43437 -2.64375,2.39062 -1.40625,0.92813 -2.925,1.49063 -1.49062,0.53437 -3.0375,0.73125 -1.54687,0.225 -3.06562,0.225 -2.67188,0 -5.0625,-0.98438 -2.39063,-1.0125 -4.19063,-2.925 -1.8,-1.9125 -2.86875,-4.69687 -1.04062,-2.78438 -1.04062,-6.35625 0,-3.17813 0.92812,-5.90625 0.92813,-2.72813 2.72813,-4.725 1.8,-1.99688 4.44375,-3.12188 2.67187,-1.15312 6.15937,-1.15312 3.31875,0 5.82188,1.06875 2.50312,1.06875 4.5,3.09375 z"
         id="path3375" />
      <path
         style="fill:#3f2d26;fill-opacity:1"
         d="m 531.1327,128.28863 q 3.2625,0 5.93438,1.04062 2.67187,1.04063 4.58437,2.98125 1.9125,1.9125 2.95313,4.66875 1.04062,2.75625 1.04062,6.21563 0,3.45937 -1.04062,6.24375 -1.04063,2.75625 -2.95313,4.69687 -1.9125,1.94063 -4.58437,2.98125 -2.67188,1.04063 -5.93438,1.04063 -3.29062,0 -5.99062,-1.04063 -2.67188,-1.04062 -4.58438,-2.98125 -1.9125,-1.94062 -2.98125,-4.69687 -1.04062,-2.78438 -1.04062,-6.24375 0,-3.45938 1.04062,-6.21563 1.06875,-2.75625 2.98125,-4.66875 1.9125,-1.94062 4.58438,-2.98125 2.7,-1.04062 5.99062,-1.04062 z m 0,24.04687 q 3.31875,0 4.92188,-2.27812 1.60312,-2.30625 1.60312,-6.83438 0,-4.5 -1.60312,-6.77812 -1.60313,-2.30625 -4.92188,-2.30625 -3.40312,0 -5.00625,2.30625 -1.60312,2.27812 -1.60312,6.77812 0,4.52813 1.60312,6.83438 1.60313,2.27812 5.00625,2.27812 z"
         id="path3377" />
    </g>
  </g>
</svg>
