<?xml version="1.0" encoding="UTF-8" standalone="no"?>
<!-- Created with Inkscape (http://www.inkscape.org/) -->

<svg
   xmlns:dc="http://purl.org/dc/elements/1.1/"
   xmlns:cc="http://creativecommons.org/ns#"
   xmlns:rdf="http://www.w3.org/1999/02/22-rdf-syntax-ns#"
   xmlns:svg="http://www.w3.org/2000/svg"
   xmlns="http://www.w3.org/2000/svg"
   xmlns:sodipodi="http://sodipodi.sourceforge.net/DTD/sodipodi-0.dtd"
   xmlns:inkscape="http://www.inkscape.org/namespaces/inkscape"
   id="svg3562"
   height="24.867mm"
   width="112.85mm"
   version="1.1"
   viewBox="0 0 399.86174 88.11"
   inkscape:version="0.91 r13725"
   sodipodi:docname="citylines-navbar.svg">
  <defs
     id="defs25" />
  <sodipodi:namedview
     pagecolor="#ffffff"
     bordercolor="#666666"
     borderopacity="1"
     objecttolerance="10"
     gridtolerance="10"
     guidetolerance="10"
     inkscape:pageopacity="0"
     inkscape:pageshadow="2"
     inkscape:window-width="640"
     inkscape:window-height="480"
     id="namedview23"
     showgrid="false"
     inkscape:zoom="0.81528087"
     inkscape:cx="199.9311"
     inkscape:cy="44.05571"
     inkscape:window-x="10"
     inkscape:window-y="34"
     inkscape:window-maximized="0"
     inkscape:current-layer="layer1" />
  <metadata
     id="metadata3567">
    <rdf:RDF>
      <cc:Work
         rdf:about="">
        <dc:format>image/svg+xml</dc:format>
        <dc:type
           rdf:resource="http://purl.org/dc/dcmitype/StillImage" />
        <dc:title />
      </cc:Work>
    </rdf:RDF>
  </metadata>
  <g
     id="layer1"
     transform="translate(-145.78 -96.879)">
    <g
       style="font-weight:600;font-size:56.25px;font-family:'Lato Semibold';fill:#ffffff"
       id="text3457">
      <path
         d="m 290.07325,134.673 q -0.28125,0.36563 -0.53438,0.5625 -0.25312,0.19688 -0.73125,0.19688 -0.47812,0 -1.0125,-0.3375 -0.50625,-0.3375 -1.2375,-0.73125 -0.70312,-0.42188 -1.71562,-0.75938 -1.0125,-0.3375 -2.53125,-0.3375 -1.96875,0 -3.45938,0.70313 -1.4625,0.70312 -2.475,2.025 -0.98437,1.29375 -1.49062,3.17812 -0.47813,1.85625 -0.47813,4.19063 0,2.41875 0.53438,4.30312 0.53437,1.88438 1.51875,3.17813 1.0125,1.29375 2.41875,1.96875 1.43437,0.675 3.20625,0.675 1.74375,0 2.84062,-0.42188 1.09688,-0.42187 1.82813,-0.92812 0.73125,-0.50625 1.2375,-0.92813 0.53437,-0.42187 1.125,-0.42187 0.73125,0 1.125,0.5625 l 1.71562,2.22187 q -1.04062,1.26563 -2.30625,2.1375 -1.26562,0.87188 -2.67187,1.43438 -1.40625,0.53437 -2.925,0.75937 -1.51875,0.25313 -3.06563,0.25313 -2.67187,0 -5.00625,-0.98438 -2.30625,-1.0125 -4.05,-2.89687 -1.71562,-1.9125 -2.72812,-4.64063 -0.98438,-2.75625 -0.98438,-6.27187 0,-3.17813 0.9,-5.87813 0.9,-2.72812 2.61563,-4.69687 1.74375,-1.96875 4.30312,-3.06563 2.55938,-1.125 5.90625,-1.125 3.12188,0 5.48438,1.0125 2.39062,1.0125 4.24687,2.86875 l -1.60312,2.19375 z"
         style=""
         id="path3354" />
      <path
         d="m 303.09512,129.048 0,28.6875 -6.04687,0 0,-28.6875 6.04687,0 z m 1.0125,-8.6625 q 0,0.81563 -0.3375,1.54688 -0.30937,0.73125 -0.87187,1.29375 -0.5625,0.53437 -1.32188,0.87187 -0.73125,0.30938 -1.575,0.30938 -0.81562,0 -1.54687,-0.30938 -0.70313,-0.3375 -1.2375,-0.87187 -0.53438,-0.5625 -0.87188,-1.29375 -0.30937,-0.73125 -0.30937,-1.54688 0,-0.84375 0.30937,-1.575 0.3375,-0.73125 0.87188,-1.26562 0.53437,-0.5625 1.2375,-0.87188 0.73125,-0.3375 1.54687,-0.3375 0.84375,0 1.575,0.3375 0.75938,0.30938 1.32188,0.87188 0.5625,0.53437 0.87187,1.26562 0.3375,0.73125 0.3375,1.575 z"
         style=""
         id="path3356" />
      <path
         d="m 319.8858,158.1855 q -3.57188,0 -5.5125,-1.99687 -1.9125,-2.025 -1.9125,-5.68125 l 0,-16.70625 -3.15,0 q -0.50625,0 -0.87188,-0.30938 -0.36562,-0.3375 -0.36562,-0.98437 l 0,-2.44688 4.64062,-0.675 1.32188,-8.29687 q 0.14062,-0.47813 0.47812,-0.75938 0.3375,-0.30937 0.9,-0.30937 l 3.09375,0 0,9.42187 7.95938,0 0,4.35938 -7.95938,0 0,16.28437 q 0,1.54688 0.75938,2.3625 0.75937,0.81563 2.025,0.81563 0.70312,0 1.20937,-0.16875 0.50625,-0.19688 0.87188,-0.39375 0.36562,-0.225 0.61875,-0.39375 0.28125,-0.19688 0.53437,-0.19688 0.50625,0 0.81563,0.5625 l 1.8,2.95313 q -1.40625,1.2375 -3.31875,1.9125 -1.9125,0.64687 -3.9375,0.64687 z"
         style=""
         id="path3358" />
      <path
         d="m 358.13576,129.048 -15.80625,36.84375 q -0.30937,0.64688 -0.75937,1.0125 -0.42188,0.36563 -1.32188,0.36563 l -4.47187,0 5.2875,-11.475 -11.7,-26.74688 5.25937,0 q 0.75938,0 1.15313,0.36563 0.42187,0.3375 0.61875,0.81562 l 6.83437,16.28438 q 0.25313,0.70312 0.45,1.40625 0.225,0.675 0.42188,1.40625 0.225,-0.73125 0.45,-1.43438 0.225,-0.70312 0.50625,-1.40625 l 6.55312,-16.25625 q 0.19688,-0.50625 0.64688,-0.84375 0.47812,-0.3375 1.04062,-0.3375 l 4.8375,0 z"
         style=""
         id="path3360" />
    </g>
    <g
       style="font-weight:800;font-size:56.25px;font-family:'Lato Heavy';fill:#ffffff"
       id="text3461">
      <path
         d="m 369.94831,115.80113 0,41.93437 -7.7625,0 0,-41.93437 7.7625,0 z"
         style=""
         id="path3363" />
      <path
         d="m 384.40453,128.73863 0,28.99687 -7.7625,0 0,-28.99687 7.7625,0 z m 0.92813,-8.24063 q 0,0.98438 -0.39375,1.82813 -0.39375,0.84375 -1.06875,1.49062 -0.64688,0.64688 -1.54688,1.0125 -0.87187,0.36563 -1.88437,0.36563 -0.95625,0 -1.82813,-0.36563 -0.84375,-0.36562 -1.49062,-1.0125 -0.64688,-0.64687 -1.04063,-1.49062 -0.36562,-0.84375 -0.36562,-1.82813 0,-0.98437 0.36562,-1.82812 0.39375,-0.87188 1.04063,-1.51875 0.64687,-0.64688 1.49062,-1.0125 0.87188,-0.36563 1.82813,-0.36563 1.0125,0 1.88437,0.36563 0.9,0.36562 1.54688,1.0125 0.675,0.64687 1.06875,1.51875 0.39375,0.84375 0.39375,1.82812 z"
         style=""
         id="path3365" />
      <path
         d="m 398.24203,132.11363 q 0.87188,-0.84375 1.8,-1.54688 0.95625,-0.70312 1.99688,-1.20937 1.06875,-0.50625 2.27812,-0.7875 1.2375,-0.28125 2.67188,-0.28125 2.3625,0 4.19062,0.81562 1.82813,0.81563 3.06563,2.27813 1.26562,1.4625 1.88437,3.4875 0.64688,2.025 0.64688,4.44375 l 0,18.42187 -7.73438,0 0,-18.42187 q 0,-2.41875 -1.125,-3.74063 -1.125,-1.35 -3.31875,-1.35 -1.63125,0 -3.06562,0.70313 -1.43438,0.70312 -2.72813,1.96875 l 0,20.84062 -7.7625,0 0,-28.99687 4.78125,0 q 1.4625,0 1.94063,1.35 l 0.47812,2.025 z"
         style=""
         id="path3367" />
      <path
         d="m 441.32952,139.81988 q 0,-1.20938 -0.3375,-2.30625 -0.30937,-1.09688 -1.0125,-1.94063 -0.70312,-0.84375 -1.77187,-1.32187 -1.06875,-0.50625 -2.55938,-0.50625 -2.78437,0 -4.35937,1.575 -1.575,1.575 -2.05313,4.5 l 12.09375,0 z m -12.20625,4.6125 q 0.36563,4.07812 2.30625,5.9625 1.96875,1.88437 5.11875,1.88437 1.60313,0 2.75625,-0.36562 1.18125,-0.39375 2.05313,-0.84375 0.9,-0.47813 1.60312,-0.84375 0.73125,-0.39375 1.43438,-0.39375 0.9,0 1.40625,0.675 l 2.25,2.8125 q -1.2375,1.43437 -2.72813,2.39062 -1.49062,0.92813 -3.09375,1.49063 -1.60312,0.53437 -3.23437,0.73125 -1.63125,0.225 -3.15,0.225 -3.0375,0 -5.68125,-0.98438 -2.61563,-1.0125 -4.58438,-2.95312 -1.94062,-1.96875 -3.06562,-4.86563 -1.125,-2.89687 -1.125,-6.72187 0,-2.95313 0.95625,-5.56875 0.98437,-2.61563 2.8125,-4.55625 1.82812,-1.94063 4.44375,-3.06563 2.61562,-1.15312 5.90625,-1.15312 2.78437,0 5.11875,0.9 2.3625,0.87187 4.05,2.55937 1.71562,1.6875 2.64375,4.1625 0.95625,2.44688 0.95625,5.59688 0,0.87187 -0.0844,1.43437 -0.0844,0.5625 -0.28125,0.9 -0.19687,0.3375 -0.53437,0.47813 -0.3375,0.1125 -0.87188,0.1125 l -17.38125,0 z"
         style=""
         id="path3369" />
      <path
         d="m 471.11392,134.70113 q -0.30937,0.47812 -0.64687,0.70312 -0.30938,0.19688 -0.87188,0.19688 -0.5625,0 -1.15312,-0.28125 -0.59063,-0.28125 -1.32188,-0.59063 -0.73125,-0.3375 -1.6875,-0.61875 -0.92812,-0.28125 -2.16562,-0.28125 -1.88438,0 -2.925,0.7875 -1.04063,0.75938 -1.04063,2.025 0,0.87188 0.59063,1.4625 0.59062,0.59063 1.54687,1.04063 0.98438,0.42187 2.22188,0.81562 1.2375,0.36563 2.53125,0.81563 1.32187,0.45 2.55937,1.04062 1.2375,0.59063 2.19375,1.49063 0.98438,0.87187 1.575,2.1375 0.59063,1.2375 0.59063,3.00937 0,2.10938 -0.7875,3.90938 -0.75938,1.77187 -2.25,3.06562 -1.49063,1.29375 -3.7125,2.025 -2.22188,0.73125 -5.11875,0.73125 -1.49063,0 -2.95313,-0.28125 -1.4625,-0.25312 -2.78437,-0.73125 -1.32188,-0.50625 -2.475,-1.15312 -1.15313,-0.64688 -1.99688,-1.40625 l 1.8,-2.89688 q 0.30938,-0.50625 0.75938,-0.7875 0.47812,-0.28125 1.20937,-0.28125 0.70313,0 1.29375,0.36563 0.59063,0.3375 1.32188,0.75937 0.73125,0.39375 1.71562,0.75938 1.0125,0.3375 2.50313,0.3375 1.125,0 1.94062,-0.25313 0.81563,-0.25312 1.32188,-0.675 0.50625,-0.45 0.73125,-0.98437 0.25312,-0.5625 0.25312,-1.15313 0,-0.95625 -0.61875,-1.54687 -0.59062,-0.61875 -1.575,-1.06875 -0.95625,-0.45 -2.22187,-0.81563 -1.26563,-0.36562 -2.5875,-0.81562 -1.29375,-0.45 -2.55938,-1.06875 -1.2375,-0.61875 -2.22187,-1.54688 -0.95625,-0.95625 -1.575,-2.33437 -0.59063,-1.37813 -0.59063,-3.34688 0,-1.8 0.70313,-3.40312 0.70312,-1.63125 2.10937,-2.86875 1.40625,-1.2375 3.4875,-1.96875 2.10938,-0.73125 4.86563,-0.73125 3.09375,0 5.625,1.0125 2.53125,1.0125 4.1625,2.64375 l -1.77188,2.75625 z"
         style=""
         id="path3371" />
      <path
         d="m 476.85141,153.65738 q 0,-0.92813 0.3375,-1.74375 0.36562,-0.84375 0.98437,-1.43438 0.61875,-0.61875 1.43438,-0.95625 0.84375,-0.36562 1.82812,-0.36562 0.95625,0 1.8,0.36562 0.84375,0.3375 1.4625,0.95625 0.61875,0.59063 0.95625,1.43438 0.36563,0.81562 0.36563,1.74375 0,0.95625 -0.36563,1.77187 -0.3375,0.81563 -0.95625,1.43438 -0.61875,0.59062 -1.4625,0.92812 -0.84375,0.3375 -1.8,0.3375 -0.98437,0 -1.82812,-0.3375 -0.81563,-0.3375 -1.43438,-0.92812 -0.61875,-0.61875 -0.98437,-1.43438 -0.3375,-0.81562 -0.3375,-1.77187 z"
         style=""
         id="path3373" />
      <path
         d="m 512.3733,135.20738 q -0.3375,0.45 -0.675,0.70312 -0.3375,0.225 -0.95625,0.225 -0.5625,0 -1.09688,-0.30937 -0.50625,-0.3375 -1.18125,-0.70313 -0.675,-0.39375 -1.60312,-0.70312 -0.92813,-0.3375 -2.30625,-0.3375 -1.74375,0 -3.0375,0.64687 -1.26563,0.61875 -2.10938,1.8 -0.84375,1.18125 -1.26562,2.86875 -0.39375,1.6875 -0.39375,3.79688 0,4.44375 1.77187,6.80625 1.8,2.3625 4.89375,2.3625 1.06875,0 1.82813,-0.16875 0.7875,-0.19688 1.35,-0.47813 0.59062,-0.28125 1.0125,-0.61875 0.42187,-0.3375 0.7875,-0.61875 0.39375,-0.28125 0.75937,-0.45 0.39375,-0.19687 0.87188,-0.19687 0.9,0 1.40625,0.675 l 2.22187,2.8125 q -1.2375,1.43437 -2.64375,2.39062 -1.40625,0.92813 -2.925,1.49063 -1.49062,0.53437 -3.0375,0.73125 -1.54687,0.225 -3.06562,0.225 -2.67188,0 -5.0625,-0.98438 -2.39063,-1.0125 -4.19063,-2.925 -1.8,-1.9125 -2.86875,-4.69687 -1.04062,-2.78438 -1.04062,-6.35625 0,-3.17813 0.92812,-5.90625 0.92813,-2.72813 2.72813,-4.725 1.8,-1.99688 4.44375,-3.12188 2.67187,-1.15312 6.15937,-1.15312 3.31875,0 5.82188,1.06875 2.50312,1.06875 4.5,3.09375 l -2.025,2.75625 z"
         style=""
         id="path3375" />
      <path
         d="m 531.1327,128.28863 q 3.2625,0 5.93438,1.04062 2.67187,1.04063 4.58437,2.98125 1.9125,1.9125 2.95313,4.66875 1.04062,2.75625 1.04062,6.21563 0,3.45937 -1.04062,6.24375 -1.04063,2.75625 -2.95313,4.69687 -1.9125,1.94063 -4.58437,2.98125 -2.67188,1.04063 -5.93438,1.04063 -3.29062,0 -5.99062,-1.04063 -2.67188,-1.04062 -4.58438,-2.98125 -1.9125,-1.94062 -2.98125,-4.69687 -1.04062,-2.78438 -1.04062,-6.24375 0,-3.45938 1.04062,-6.21563 1.06875,-2.75625 2.98125,-4.66875 1.9125,-1.94062 4.58438,-2.98125 2.7,-1.04062 5.99062,-1.04062 z m 0,24.04687 q 3.31875,0 4.92188,-2.27812 1.60312,-2.30625 1.60312,-6.83438 0,-4.5 -1.60312,-6.77812 -1.60313,-2.30625 -4.92188,-2.30625 -3.40312,0 -5.00625,2.30625 -1.60312,2.27812 -1.60312,6.77812 0,4.52813 1.60312,6.83438 1.60313,2.27812 5.00625,2.27812 z"
         style=""
         id="path3377" />
    </g>
    <g
       fill="#fff"
       id="g9">
      <g
         id="g3481"
         transform="matrix(1.25 0 0 -1.25 190.12 179.27)">
        <path
           id="path3483"
           d="m0 0c-17.035 0-30.896 13.758-30.896 30.671 0 15.528 11.687 28.388 26.785 30.391 1.397-1.208 7.287-6.599 8.05-7.225 0.682-0.56 0.923-1.131 0.916-2.182-0.005-1.159 0.147-8.151-0.072-10.44-0.453-4.718 2.192-7.51 4.833-9.621 1.526-1.215 17.067-14.669 17.816-15.007-5.149-9.843-15.508-16.587-27.432-16.587m30.895 30.671c0-3.35-0.551-6.571-1.555-9.591-0.716 0.428-15.726 13.62-18.011 15.336-1.4 1.051-1.665 2.193-1.641 3.808 0.038 2.898 0.011 11.35 0.011 11.35-0.004 2.076-0.612 3.672-1.913 5.016-1.106 1.14-3.116 2.968-4.973 4.619 15.722-1.416 28.082-14.568 28.082-30.538m-30.895 35.243c-19.559 0-35.468-15.81-35.468-35.243 0-19.434 15.909-35.245 35.468-35.245 19.557 0 35.469 15.811 35.469 35.245 0 19.433-15.912 35.243-35.469 35.243"
           fill="#fff" />
      </g>
      <g
         id="g3485"
         transform="matrix(1.25 0 0 -1.25 182.43 176.69)">
        <path
           id="path3487"
           d="m0 0 0.003 6.317c0.012 8.592 0.015 15.195-0.003 15.571-0.115 2.996-2.104 4.621-3.856 6.055-0.334 0.275-14.631 12.809-17.237 15.1-0.829-1.533-1.533-3.143-2.092-4.818 1.744-1.534 4.425-3.912 7.05-6.241 4.085-3.622 10.966-9.585 10.951-10.427 0-0.048 0.048-17.383-0.093-19.673-0.035-0.574-0.079-1.153-0.106-1.724 1.716-0.688 3.504-1.234 5.356-1.609-0.043 0.517 0.027 1.072 0.027 1.449"
           fill="#fff" />
      </g>
      <g
         id="g3489"
         transform="matrix(1.25 0 0 -1.25 226.14 133.51)">
        <path
           id="path3491"
           d="m0 0c0.336 0.504 0.617 2.318 0.48 3.805-1.117 3.461-2.709 6.253-4.912 9.06-0.01-3.542-0.043-8.499-0.043-9.837 0.003-1.011-4.418-5.18-5.984-6.653-0.463-0.437-0.928-0.87-1.394-1.303 1.223-1.051 2.533-2.181 3.829-3.301 0.254 0.225 7.056 6.677 8.024 8.229"
           fill="#fff" />
      </g>
      <g
         id="g3493"
         transform="matrix(1.25 0 0 -1.25 206.62 143.58)">
        <path
           id="path3495"
           d="m0 0c-1.818-1.708-6.254-5.287-6.525-5.537-1.268-1.153-1.875-2.62-1.965-4.755-0.066-1.471-0.125-14.37-0.037-17.904 1.775 0.27 3.498 0.697 5.161 1.254 0.027 3.78 0.108 14.855 0.124 15.108 0.092 1.336 0.144 2.144 1.732 3.645 0.944 0.89 4.212 3.7 5.447 4.824-1.406 1.201-2.762 2.362-3.937 3.365"
           fill="#fff" />
      </g>
      <g
         id="g3497"
         transform="matrix(1.25 0 0 -1.25 182 103.47)">
        <path
           id="path3499"
           d="m0 0c-0.018-4.709-0.034-9.553-0.016-14.329 0.004-1.072-0.341-1.851-1.126-2.528-1.651-1.43-9.067-7.821-9.114-7.89 0.262-0.23 2.82-2.474 3.773-3.306 0.781 0.625 6.911 5.865 9.429 8.116 0.384 0.343 2.296 2.22 2.187 5.373 0.01 5.925-0.004 9.887-0.034 12.556-1.179 1.065-2.223 2.004-2.712 2.427-0.807-0.107-1.601-0.252-2.387-0.419"
           fill="#fff" />
      </g>
      <g
         id="g3501"
         transform="matrix(1.25 0 0 -1.25 169.12 142.79)">
        <path
           id="path3503"
           d="m0 0c-1.249 1.124-2.561 2.284-3.772 3.354-0.25-0.231-7.247-6.478-9.601-8.432 0.413-1.872 0.993-3.683 1.734-5.411 0.674 0.603 9.218 8.227 11.639 10.489"
           fill="#fff" />
      </g>
    </g>
  </g>
</svg>
